<svg width="800" height="800" viewBox="0 0 800 800" fill="none" xmlns="http://www.w3.org/2000/svg">
<path fill-rule="evenodd" clip-rule="evenodd" d="M325.926 700H474.073C578.11 700 630.127 700 667.493 675.487C683.667 664.873 697.557 651.237 708.367 635.357C733.333 598.67 733.333 547.597 733.333 445.453C733.333 343.313 733.333 292.24 708.367 255.553C697.557 239.671 683.667 226.035 667.493 215.423C643.48 199.671 613.423 194.041 567.4 192.029C545.437 192.029 526.53 175.689 522.223 154.545C515.76 122.83 487.397 100 454.457 100H345.543C312.602 100 284.238 122.83 277.778 154.545C273.471 175.689 254.562 192.029 232.6 192.029C186.578 194.041 156.518 199.671 132.508 215.423C116.332 226.035 102.443 239.671 91.634 255.553C66.6667 292.24 66.6667 343.313 66.6667 445.453C66.6667 547.597 66.6667 598.67 91.634 635.357C102.443 651.237 116.332 664.873 132.508 675.487C169.875 700 221.892 700 325.926 700ZM400 309.091C323.294 309.091 261.111 370.143 261.111 445.453C261.111 520.767 323.294 581.817 400 581.817C476.707 581.817 538.89 520.767 538.89 445.453C538.89 370.143 476.707 309.091 400 309.091ZM400 363.637C353.977 363.637 316.667 400.267 316.667 445.453C316.667 490.64 353.977 527.273 400 527.273C446.023 527.273 483.333 490.64 483.333 445.453C483.333 400.267 446.023 363.637 400 363.637ZM557.407 336.363C557.407 321.301 569.843 309.091 585.187 309.091H622.223C637.563 309.091 650 321.301 650 336.363C650 351.427 637.563 363.637 622.223 363.637H585.187C569.843 363.637 557.407 351.427 557.407 336.363Z" fill="white"/>
</svg>
